REM DIRINDEX 1\2\4,1\2\5,1\3\6,1\3\7,1\3\8
REM DIRNAME cjc092,folder01,folder02,folder03,folder04,folder05,folder06,folder07
TITLE ""
FILE "LEVEL3-006-midashigo.mp3" MP3
  TRACK 01 AUDIO
    TITLE "0:"
    INDEX 01 00:00:00
  TRACK 02 AUDIO
    TITLE "6:cjc092_1981"
    INDEX 01 00:00:01
  TRACK 03 AUDIO
    TITLE "0:"
    INDEX 01 00:01:71
  TRACK 04 AUDIO
    TITLE "7:cjc092_1982"
    INDEX 01 00:02:40
  TRACK 05 AUDIO
    TITLE "8:cjc092_1983"
    INDEX 01 00:03:59
  TRACK 06 AUDIO
    TITLE "0:"
    INDEX 01 00:06:61
  TRACK 07 AUDIO
    TITLE "7:cjc092_1984"
    INDEX 01 00:07:19
  TRACK 08 AUDIO
    TITLE "8:cjc092_1985"
    INDEX 01 00:08:40
  TRACK 09 AUDIO
    TITLE "0:"
    INDEX 01 00:11:13
  TRACK 10 AUDIO
    TITLE "7:cjc092_1986"
    INDEX 01 00:11:46
  TRACK 11 AUDIO
    TITLE "8:cjc092_1987"
    INDEX 01 00:13:06
  TRACK 12 AUDIO
    TITLE "0:"
    INDEX 01 00:14:37
  TRACK 13 AUDIO
    TITLE "7:cjc092_1988"
    INDEX 01 00:14:70
  TRACK 14 AUDIO
    TITLE "8:cjc092_1989"
    INDEX 01 00:16:30
  TRACK 15 AUDIO
    TITLE "0:"
    INDEX 01 00:22:60
  TRACK 16 AUDIO
    TITLE "7:cjc092_1990"
    INDEX 01 00:23:16
  TRACK 17 AUDIO
    TITLE "8:cjc092_1991"
    INDEX 01 00:25:01
  TRACK 18 AUDIO
    TITLE "0:"
    INDEX 01 00:26:66
  TRACK 19 AUDIO
    TITLE "7:cjc092_1992"
    INDEX 01 00:27:24
  TRACK 20 AUDIO
    TITLE "8:cjc092_1993"
    INDEX 01 00:28:64
  TRACK 21 AUDIO
    TITLE "0:"
    INDEX 01 00:30:06
  TRACK 22 AUDIO
    TITLE "7:cjc092_1994"
    INDEX 01 00:30:40
  TRACK 23 AUDIO
    TITLE "8:cjc092_1995"
    INDEX 01 00:31:71
  TRACK 24 AUDIO
    TITLE "0:"
    INDEX 01 00:33:40
  TRACK 25 AUDIO
    TITLE "7:cjc092_1996"
    INDEX 01 00:33:73
  TRACK 26 AUDIO
    TITLE "8:cjc092_1997"
    INDEX 01 00:35:29
  TRACK 27 AUDIO
    TITLE "0:"
    INDEX 01 00:36:72
  TRACK 28 AUDIO
    TITLE "7:cjc092_1998"
    INDEX 01 00:37:30
  TRACK 29 AUDIO
    TITLE "8:cjc092_1999"
    INDEX 01 00:38:67
  TRACK 30 AUDIO
    TITLE "0:"
    INDEX 01 00:41:30
  TRACK 31 AUDIO
    TITLE "7:cjc092_2000"
    INDEX 01 00:41:69
  TRACK 32 AUDIO
    TITLE "8:cjc092_2001"
    INDEX 01 00:43:25
  TRACK 33 AUDIO
    TITLE "0:"
    INDEX 01 00:45:63
  TRACK 34 AUDIO
    TITLE "7:cjc092_2002"
    INDEX 01 00:46:25
  TRACK 35 AUDIO
    TITLE "8:cjc092_2003"
    INDEX 01 00:47:44
  TRACK 36 AUDIO
    TITLE "0:"
    INDEX 01 00:49:67
  TRACK 37 AUDIO
    TITLE "7:cjc092_2004"
    INDEX 01 00:50:27
  TRACK 38 AUDIO
    TITLE "8:cjc092_2005"
    INDEX 01 00:51:69
  TRACK 39 AUDIO
    TITLE "0:"
    INDEX 01 00:53:70
  TRACK 40 AUDIO
    TITLE "7:cjc092_2006"
    INDEX 01 00:54:29
  TRACK 41 AUDIO
    TITLE "8:cjc092_2007"
    INDEX 01 00:55:57
  TRACK 42 AUDIO
    TITLE "0:"
    INDEX 01 00:57:46
  TRACK 43 AUDIO
    TITLE "7:cjc092_2008"
    INDEX 01 00:58:07
  TRACK 44 AUDIO
    TITLE "8:cjc092_2009"
    INDEX 01 00:59:30
  TRACK 45 AUDIO
    TITLE "0:"
    INDEX 01 01:00:45
  TRACK 46 AUDIO
    TITLE "7:cjc092_2010"
    INDEX 01 01:01:05
  TRACK 47 AUDIO
    TITLE "8:cjc092_2011"
    INDEX 01 01:02:42
  TRACK 48 AUDIO
    TITLE "0:"
    INDEX 01 01:05:07
  TRACK 49 AUDIO
    TITLE "7:cjc092_2012"
    INDEX 01 01:05:40
  TRACK 50 AUDIO
    TITLE "8:cjc092_2013"
    INDEX 01 01:06:69
  TRACK 51 AUDIO
    TITLE "0:"
    INDEX 01 01:09:16
  TRACK 52 AUDIO
    TITLE "7:cjc092_2014"
    INDEX 01 01:09:52
  TRACK 53 AUDIO
    TITLE "8:cjc092_2015"
    INDEX 01 01:11:07
  TRACK 54 AUDIO
    TITLE "0:"
    INDEX 01 01:13:69
  TRACK 55 AUDIO
    TITLE "7:cjc092_2016"
    INDEX 01 01:14:27
  TRACK 56 AUDIO
    TITLE "8:cjc092_2017"
    INDEX 01 01:15:62
  TRACK 57 AUDIO
    TITLE "0:"
    INDEX 01 01:18:06
  TRACK 58 AUDIO
    TITLE "7:cjc092_2018"
    INDEX 01 01:18:45
  TRACK 59 AUDIO
    TITLE "8:cjc092_2019"
    INDEX 01 01:20:00
  TRACK 60 AUDIO
    TITLE "0:"
    INDEX 01 01:21:63
  TRACK 61 AUDIO
    TITLE "7:cjc092_2020"
    INDEX 01 01:22:21
  TRACK 62 AUDIO
    TITLE "8:cjc092_2021"
    INDEX 01 01:23:65
  TRACK 63 AUDIO
    TITLE "0:"
    INDEX 01 01:26:19
